<?xml version="1.0" encoding="UTF-8"?>
<svg version="1.1" xmlns="http://www.w3.org/2000/svg" width="512" height="512">
<path d="M0 0 C20.79 0 41.58 0 63 0 C63 0.33 63 0.66 63 1 C64.39025391 1.07347656 64.39025391 1.07347656 65.80859375 1.1484375 C67.00613281 1.22320312 68.20367187 1.29796875 69.4375 1.375 C71.22994141 1.47941406 71.22994141 1.47941406 73.05859375 1.5859375 C74.02925781 1.72257812 74.99992188 1.85921875 76 2 C76.33 2.66 76.66 3.32 77 4 C79.35599235 4.46751788 79.35599235 4.46751788 82.0625 4.625 C82.98160156 4.69976562 83.90070313 4.77453125 84.84765625 4.8515625 C85.55792969 4.90054688 86.26820313 4.94953125 87 5 C87 5.66 87 6.32 87 7 C89.64 7 92.28 7 95 7 C95 7.33 95 7.66 95 8 C97.31 8.66 99.62 9.32 102 10 C102 10.66 102 11.32 102 12 C104.31 12 106.62 12 109 12 C109 12.66 109 13.32 109 14 C109.78375 13.95875 110.5675 13.9175 111.375 13.875 C114 14 114 14 116 16 C118.57061311 16.64767793 118.57061311 16.64767793 121 17 C121 17.66 121 18.32 121 19 C122.65 19.33 124.3 19.66 126 20 C126 20.66 126 21.32 126 22 C127.65 22 129.3 22 131 22 C131 22.66 131 23.32 131 24 C132.32 24 133.64 24 135 24 C135.33 24.66 135.66 25.32 136 26 C136.99 26.33 137.98 26.66 139 27 C139 27.66 139 28.32 139 29 C140.32 29 141.64 29 143 29 C143 29.66 143 30.32 143 31 C143.598125 31.12375 144.19625 31.2475 144.8125 31.375 C147 32 147 32 150 34 C150 34.66 150 35.32 150 36 C151.65 36.33 153.3 36.66 155 37 C155 37.66 155 38.32 155 39 C156.65 39.66 158.3 40.32 160 41 C160 41.66 160 42.32 160 43 C161.65 43.33 163.3 43.66 165 44 C165 44.66 165 45.32 165 46 C165.66 46 166.32 46 167 46 C168.625 47.375 168.625 47.375 170 49 C170 49.66 170 50.32 170 51 C170.66 51 171.32 51 172 51 C172 51.66 172 52.32 172 53 C172.99 53 173.98 53 175 53 C177.375 55.1875 177.375 55.1875 180 58 C180.928125 58.886875 181.85625 59.77375 182.8125 60.6875 C185 63 185 63 185 65 C185.66 65 186.32 65 187 65 C187 65.99 187 66.98 187 68 C187.66 68 188.32 68 189 68 C190.625 69.375 190.625 69.375 192 71 C192 71.66 192 72.32 192 73 C192.66 73 193.32 73 194 73 C198.47335903 76.6905212 199.81887248 79.52386331 201 85 C201.99 85 202.98 85 204 85 C204 85.99 204 86.98 204 88 C204.66 88 205.32 88 206 88 C206.12375 88.639375 206.2475 89.27875 206.375 89.9375 C206.684375 90.9584375 206.684375 90.9584375 207 92 C207.66 92.33 208.32 92.66 209 93 C209 93.66 209 94.32 209 95 C209.66 95 210.32 95 211 95 C211 96.65 211 98.3 211 100 C211.99 100 212.98 100 214 100 C214.680625 101.60875 214.680625 101.60875 215.375 103.25 C217.21229566 108.45776352 217.21229566 108.45776352 221 112 C221 113.65 221 115.3 221 117 C221.66 117 222.32 117 223 117 C223.33 118.98 223.66 120.96 224 123 C224.66 123 225.32 123 226 123 C226 124.98 226 126.96 226 129 C226.66 129 227.32 129 228 129 C228 130.65 228 132.3 228 134 C228.99 134.33 229.98 134.66 231 135 C231 136.98 231 138.96 231 141 C231.66 141 232.32 141 233 141 C233.12375 142.093125 233.2475 143.18625 233.375 144.3125 C233.75464801 148.07381802 233.75464801 148.07381802 236 151 C236.125 154.1875 236.125 154.1875 236 157 C236.66 157 237.32 157 238 157 C238 160.3 238 163.6 238 167 C238.66 167 239.32 167 240 167 C240.04898437 167.92683594 240.09796875 168.85367188 240.1484375 169.80859375 C240.26058594 171.60490234 240.26058594 171.60490234 240.375 173.4375 C240.44460938 174.63246094 240.51421875 175.82742187 240.5859375 177.05859375 C240.72257812 178.02925781 240.85921875 178.99992188 241 180 C241.66 180.33 242.32 180.66 243 181 C243 201.79 243 222.58 243 244 C242.34 244.33 241.68 244.66 241 245 C240.53045739 248.04581269 240.53045739 248.04581269 240.375 251.5625 C240.30023438 252.76003906 240.22546875 253.95757812 240.1484375 255.19140625 C240.09945313 256.11824219 240.05046875 257.04507812 240 258 C239.34 258 238.68 258 238 258 C238 261.63 238 265.26 238 269 C237.67 269 237.34 269 237 269 C236.34 271.64 235.68 274.28 235 277 C234.34 277 233.68 277 233 277 C233 279.31 233 281.62 233 284 C232.34 284 231.68 284 231 284 C231.04125 284.94875 231.0825 285.8975 231.125 286.875 C231 290 231 290 229 292 C228.3574765 294.06874034 228.3574765 294.06874034 228 296 C227.34 296 226.68 296 226 296 C226.04125 296.94875 226.0825 297.8975 226.125 298.875 C226 302 226 302 224 304 C223.3574765 306.06874034 223.3574765 306.06874034 223 308 C222.34 308 221.68 308 221 308 C221 309.65 221 311.3 221 313 C220.34 313.33 219.68 313.66 219 314 C217.94647157 316.30965848 216.94280904 318.6429774 216 321 C215.34 321 214.68 321 214 321 C214 322.32 214 323.64 214 325 C213.34 325.33 212.68 325.66 212 326 C211.34786708 328.02463255 211.34786708 328.02463255 211 330 C210.34 330 209.68 330 209 330 C209 330.99 209 331.98 209 333 C208.01 333 207.02 333 206 333 C206 334.32 206 335.64 206 337 C205.34 337 204.68 337 204 337 C204 337.99 204 338.98 204 340 C202.625 341.6875 202.625 341.6875 201 343 C200.34 343 199.68 343 199 343 C199 344.32 199 345.64 199 347 C197.625 348.75 197.625 348.75 196 350 C195.34 350 194.68 350 194 350 C194 350.66 194 351.32 194 352 C193.34 352 192.68 352 192 352 C192 352.99 192 353.98 192 355 C191.01 355 190.02 355 189 355 C188.731875 355.7425 188.46375 356.485 188.1875 357.25 C187.04723249 359.89061949 185.90619694 361.85552844 184 364 C183.34 364 182.68 364 182 364 C181.67 364.99 181.34 365.98 181 367 C177.55555556 370 177.55555556 370 175 370 C175 370.66 175 371.32 175 372 C174.01 372 173.02 372 172 372 C172 372.66 172 373.32 172 374 C171.34 374 170.68 374 170 374 C170 374.99 170 375.98 170 377 C169.01 377 168.02 377 167 377 C167 377.66 167 378.32 167 379 C165.17770776 381.35826055 163.00922195 382.59626844 160.4375 384 C156.84826364 385.7506929 156.84826364 385.7506929 155 389 C152.375 389.1875 152.375 389.1875 150 389 C150 389.66 150 390.32 150 391 C148.75 392.625 148.75 392.625 147 394 C145.68 394 144.36 394 143 394 C143 394.66 143 395.32 143 396 C142.01 396.33 141.02 396.66 140 397 C139.67 397.66 139.34 398.32 139 399 C137.68 399 136.36 399 135 399 C135 399.66 135 400.32 135 401 C134.360625 401.12375 133.72125 401.2475 133.0625 401.375 C132.0415625 401.684375 132.0415625 401.684375 131 402 C130.67 402.66 130.34 403.32 130 404 C128.68 404 127.36 404 126 404 C126 404.66 126 405.32 126 406 C124.35 406 122.7 406 121 406 C121 406.66 121 407.32 121 408 C119.02 408.33 117.04 408.66 115 409 C115 409.66 115 410.32 115 411 C113.02 411 111.04 411 109 411 C109 411.66 109 412.32 109 413 C108.030625 413.12375 107.06125 413.2475 106.0625 413.375 C105.051875 413.58125 104.04125 413.7875 103 414 C102.67 414.66 102.34 415.32 102 416 C99.67843403 416.40729228 97.3431213 416.74438677 95 417 C95 417.33 95 417.66 95 418 C91.92382812 418.29296875 91.92382812 418.29296875 88.84765625 418.5859375 C88.23792969 418.72257812 87.62820313 418.85921875 87 419 C86.67 419.66 86.34 420.32 86 421 C83.93359375 421.4140625 83.93359375 421.4140625 81.4375 421.625 C80.19806641 421.73714844 80.19806641 421.73714844 78.93359375 421.8515625 C78.29550781 421.90054687 77.65742188 421.94953125 77 422 C77 422.33 77 422.66 77 423 C72.38 423 67.76 423 63 423 C63 423.66 63 424.32 63 425 C57.09131427 426.28358247 51.22844395 426.14397229 45.21484375 426.1328125 C44.08099747 426.13376923 42.94715118 426.13472595 41.77894592 426.13571167 C39.38770492 426.13639069 36.99646205 426.1345558 34.60522461 426.13037109 C30.94706077 426.125014 27.28901943 426.13032809 23.63085938 426.13671875 C21.30468723 426.13605802 18.97851516 426.13477695 16.65234375 426.1328125 C15.55953598 426.13483673 14.46672821 426.13686096 13.34080505 426.13894653 C12.31946976 426.13579437 11.29813446 426.13264221 10.24584961 426.12939453 C9.35127548 426.12859894 8.45670135 426.12780334 7.53501892 426.12698364 C4.93616276 425.99680228 2.53478531 425.57404065 0 425 C0 424.34 0 423.68 0 423 C-4.62 423 -9.24 423 -14 423 C-14 422.34 -14 421.68 -14 421 C-16.97 421 -19.94 421 -23 421 C-23.33 420.01 -23.66 419.02 -24 418 C-26.64 418 -29.28 418 -32 418 C-32 417.34 -32 416.68 -32 416 C-34.31 416 -36.62 416 -39 416 C-39.33 415.34 -39.66 414.68 -40 414 C-43.02934491 413.34227572 -43.02934491 413.34227572 -46 413 C-46 412.34 -46 411.68 -46 411 C-47.98 411 -49.96 411 -52 411 C-52 410.34 -52 409.68 -52 409 C-53.98 408.67 -55.96 408.34 -58 408 C-58 407.34 -58 406.68 -58 406 C-59.65 406 -61.3 406 -63 406 C-63 405.34 -63 404.68 -63 404 C-64.65 403.67 -66.3 403.34 -68 403 C-68 402.34 -68 401.68 -68 401 C-69.65 401 -71.3 401 -73 401 C-73 400.34 -73 399.68 -73 399 C-73.99 399 -74.98 399 -76 399 C-76 398.34 -76 397.68 -76 397 C-77.32 396.67 -78.64 396.34 -80 396 C-80 395.34 -80 394.68 -80 394 C-81.1446875 394.0928125 -81.1446875 394.0928125 -82.3125 394.1875 C-85 394 -85 394 -86.8125 392.625 C-88 391 -88 391 -88 389 C-89.32 389 -90.64 389 -92 389 C-93.75 387.625 -93.75 387.625 -95 386 C-95 385.34 -95 384.68 -95 384 C-95.99 384 -96.98 384 -98 384 C-98 383.34 -98 382.68 -98 382 C-99.32 381.67 -100.64 381.34 -102 381 C-102 380.34 -102 379.68 -102 379 C-102.99 379 -103.98 379 -105 379 C-105 378.34 -105 377.68 -105 377 C-105.66 377 -106.32 377 -107 377 C-108.625 375.625 -108.625 375.625 -110 374 C-110 373.34 -110 372.68 -110 372 C-110.66 372 -111.32 372 -112 372 C-112 371.34 -112 370.68 -112 370 C-112.59296875 369.89558594 -113.1859375 369.79117187 -113.796875 369.68359375 C-116.32410372 368.8994359 -117.4230218 367.94945476 -119.25 366.0625 C-119.77078125 365.53785156 -120.2915625 365.01320313 -120.828125 364.47265625 C-122 363 -122 363 -122 361 C-122.66 361 -123.32 361 -124 361 C-124.495 359.515 -124.495 359.515 -125 358 C-125.66 357.67 -126.32 357.34 -127 357 C-127 356.34 -127 355.68 -127 355 C-127.66 355 -128.32 355 -129 355 C-131.625 352.6875 -131.625 352.6875 -134 350 C-134 349.01 -134 348.02 -134 347 C-134.66 347 -135.32 347 -136 347 C-136.495 345.515 -136.495 345.515 -137 344 C-137.66 343.67 -138.32 343.34 -139 343 C-139 342.01 -139 341.02 -139 340 C-139.66 340 -140.32 340 -141 340 C-142.625 338.75 -142.625 338.75 -144 337 C-144 335.68 -144 334.36 -144 333 C-144.66 333 -145.32 333 -146 333 C-146 332.01 -146 331.02 -146 330 C-146.99 329.67 -147.98 329.34 -149 329 C-151.1519437 325.77208445 -151.20086443 324.71599191 -151 321 C-151.66 321 -152.32 321 -153 321 C-153.495 319.02 -153.495 319.02 -154 317 C-154.66 317 -155.32 317 -156 317 C-156 315.68 -156 314.36 -156 313 C-156.66 313 -157.32 313 -158 313 C-158.12375 312.360625 -158.2475 311.72125 -158.375 311.0625 C-158.58125 310.381875 -158.7875 309.70125 -159 309 C-159.66 308.67 -160.32 308.34 -161 308 C-161 306.35 -161 304.7 -161 303 C-161.66 303 -162.32 303 -163 303 C-163.185625 301.5459375 -163.185625 301.5459375 -163.375 300.0625 C-163.684375 298.5465625 -163.684375 298.5465625 -164 297 C-164.66 296.67 -165.32 296.34 -166 296 C-166 294.35 -166 292.7 -166 291 C-166.66 291 -167.32 291 -168 291 C-168 288.69 -168 286.38 -168 284 C-168.66 284 -169.32 284 -170 284 C-170.33 281.69 -170.66 279.38 -171 277 C-171.66 277 -172.32 277 -173 277 C-173 274.36 -173 271.72 -173 269 C-173.66 269 -174.32 269 -175 269 C-175.33 265.37 -175.66 261.74 -176 258 C-176.66 258 -177.32 258 -178 258 C-178.33 253.71 -178.66 249.42 -179 245 C-179.33 245 -179.66 245 -180 245 C-180 223.55 -180 202.1 -180 180 C-179.67 180 -179.34 180 -179 180 C-178.92652344 178.60974609 -178.92652344 178.60974609 -178.8515625 177.19140625 C-178.77679688 175.99386719 -178.70203125 174.79632813 -178.625 173.5625 C-178.55539063 172.36753906 -178.48578125 171.17257813 -178.4140625 169.94140625 C-178.27742188 168.97074219 -178.14078125 168.00007812 -178 167 C-177.34 166.67 -176.68 166.34 -176 166 C-175.53348793 163.87423218 -175.53348793 163.87423218 -175.375 161.4375 C-175.30023438 160.61121094 -175.22546875 159.78492188 -175.1484375 158.93359375 C-175.07496094 157.97646484 -175.07496094 157.97646484 -175 157 C-174.34 157 -173.68 157 -173 157 C-173 154.36 -173 151.72 -173 149 C-172.34 149 -171.68 149 -171 149 C-171.020625 148.05125 -171.04125 147.1025 -171.0625 146.125 C-171 143 -171 143 -170 141 C-169.34 141 -168.68 141 -168 141 C-168 138.69 -168 136.38 -168 134 C-167.34 134 -166.68 134 -166 134 C-166 132.35 -166 130.7 -166 129 C-165.01 129 -164.02 129 -163 129 C-163 126.69 -163 124.38 -163 122 C-162.67 122 -162.34 122 -162 122 C-161.87625 121.195625 -161.7525 120.39125 -161.625 119.5625 C-161.315625 118.2940625 -161.315625 118.2940625 -161 117 C-160.01 116.505 -160.01 116.505 -159 116 C-158.34786708 113.97536745 -158.34786708 113.97536745 -158 112 C-157.34 112 -156.68 112 -156 112 C-156 110.68 -156 109.36 -156 108 C-155.34 108 -154.68 108 -154 108 C-152.58622659 105.36095629 -151.62759865 102.92879371 -151 100 C-150.34 100 -149.68 100 -149 100 C-149 98.68 -149 97.36 -149 96 C-148.01 95.505 -148.01 95.505 -147 95 C-146.505 93.515 -146.505 93.515 -146 92 C-145.34 92 -144.68 92 -144 92 C-143.87625 91.401875 -143.7525 90.80375 -143.625 90.1875 C-143 88 -143 88 -141 85 C-140.34 85 -139.68 85 -139 85 C-139 84.34 -139 83.68 -139 83 C-138.34 82.34 -137.68 81.68 -137 81 C-136.505 79.515 -136.505 79.515 -136 78 C-135.34 78 -134.68 78 -134 78 C-134 77.01 -134 76.02 -134 75 C-131.525 74.01 -131.525 74.01 -129 73 C-129 72.01 -129 71.02 -129 70 C-128.34 70 -127.68 70 -127 70 C-127 69.34 -127 68.68 -127 68 C-125.69112542 66.64264858 -124.35147138 65.31494512 -123 64 C-122.11630939 62.92374398 -121.24147473 61.84016405 -120.375 60.75 C-119.59125 59.8425 -118.8075 58.935 -118 58 C-117.34 58 -116.68 58 -116 58 C-116 57.34 -116 56.68 -116 56 C-115.01 55.67 -114.02 55.34 -113 55 C-112.505 54.01 -112.505 54.01 -112 53 C-111.34 53 -110.68 53 -110 53 C-110 52.34 -110 51.68 -110 51 C-109.01 51 -108.02 51 -107 51 C-107 50.34 -107 49.68 -107 49 C-106.34 49 -105.68 49 -105 49 C-105 48.01 -105 47.02 -105 46 C-104.01 46 -103.02 46 -102 46 C-102 45.34 -102 44.68 -102 44 C-100.68 43.67 -99.36 43.34 -98 43 C-98 42.34 -98 41.68 -98 41 C-97.01 41 -96.02 41 -95 41 C-95 40.34 -95 39.68 -95 39 C-93.75 37.375 -93.75 37.375 -92 36 C-90.68 36 -89.36 36 -88 36 C-88 35.34 -88 34.68 -88 34 C-87.01 34 -86.02 34 -85 34 C-84.67 33.01 -84.34 32.02 -84 31 C-82.68 31 -81.36 31 -80 31 C-80 30.34 -80 29.68 -80 29 C-79.030625 28.54625 -78.06125 28.0925 -77.0625 27.625 C-73.92920418 26.34213779 -73.92920418 26.34213779 -73 24 C-71.35 24 -69.7 24 -68 24 C-68 23.34 -68 22.68 -68 22 C-67.360625 21.87625 -66.72125 21.7525 -66.0625 21.625 C-65.381875 21.41875 -64.70125 21.2125 -64 21 C-63.67 20.34 -63.34 19.68 -63 19 C-61.35 19 -59.7 19 -58 19 C-58 18.34 -58 17.68 -58 17 C-56.5459375 16.5359375 -56.5459375 16.5359375 -55.0625 16.0625 C-52.15934208 15.30476658 -52.15934208 15.30476658 -51 14 C-49.33382885 13.95936168 -47.66611905 13.957279 -46 14 C-46 13.34 -46 12.68 -46 12 C-43.69 12 -41.38 12 -39 12 C-39 11.34 -39 10.68 -39 10 C-35.535 9.505 -35.535 9.505 -32 9 C-32 8.34 -32 7.68 -32 7 C-29.36 7 -26.72 7 -24 7 C-24 6.34 -24 5.68 -24 5 C-23.04287109 4.92652344 -23.04287109 4.92652344 -22.06640625 4.8515625 C-21.24011719 4.77679688 -20.41382813 4.70203125 -19.5625 4.625 C-18.73878906 4.55539063 -17.91507813 4.48578125 -17.06640625 4.4140625 C-16.38449219 4.27742188 -15.70257813 4.14078125 -15 4 C-14.67 3.34 -14.34 2.68 -14 2 C-9.38 2 -4.76 2 0 2 C0 1.34 0 0.68 0 0 Z " fill="#AB3EF0" transform="translate(224,43)"/>
</svg>
